HIERARCHY
ROOT mixamorig:Hips
{
	OFFSET -0.000008 104.274872 1.554316
	CHANNELS 6 Xposition Yposition Zposition Xrotation Yrotation Zrotation
	JOINT mixamorig:Spine
	{
		OFFSET -0.000005 10.181595 0.131519
		CHANNELS 6 Xposition Yposition Zposition Xrotation Yrotation Zrotation
		JOINT mixamorig:Spine1
		{
			OFFSET -0.000000 9.893959 -1.470707
			CHANNELS 6 Xposition Yposition Zposition Xrotation Yrotation Zrotation
			JOINT mixamorig:Spine2
			{
				OFFSET -0.000000 9.220757 -1.370641
				CHANNELS 6 Xposition Yposition Zposition Xrotation Yrotation Zrotation
				JOINT mixamorig:Neck
				{
					OFFSET 0.000001 16.740417 -2.049036
					CHANNELS 6 Xposition Yposition Zposition Xrotation Yrotation Zrotation
					JOINT mixamorig:Head
					{
						OFFSET 0.000000 9.617874 1.685006
						CHANNELS 6 Xposition Yposition Zposition Xrotation Yrotation Zrotation
						JOINT mixamorig:HeadTop_End
						{
							OFFSET 0.000002 22.037354 7.501101
							CHANNELS 6 Xposition Yposition Zposition Xrotation Yrotation Zrotation
							End Site
							{
								OFFSET 0.000168 2310.654297 -282.823242
							}
						}
					}
				}
				JOINT mixamorig:RightShoulder
				{
					OFFSET -4.569970 11.014908 -2.160885
					CHANNELS 6 Xposition Yposition Zposition Xrotation Yrotation Zrotation
					JOINT mixamorig:RightArm
					{
						OFFSET -10.592851 -0.524811 -2.232101
						CHANNELS 6 Xposition Yposition Zposition Xrotation Yrotation Zrotation
						JOINT mixamorig:RightForeArm
						{
							OFFSET -27.841511 0.000031 -0.000004
							CHANNELS 6 Xposition Yposition Zposition Xrotation Yrotation Zrotation
							JOINT mixamorig:RightHand
							{
								OFFSET -28.328831 -0.000015 0.000015
								CHANNELS 6 Xposition Yposition Zposition Xrotation Yrotation Zrotation
								JOINT mixamorig:RightHandThumb1
								{
									OFFSET -2.464806 -1.573990 2.681852
									CHANNELS 6 Xposition Yposition Zposition Xrotation Yrotation Zrotation
									JOINT mixamorig:RightHandThumb2
									{
										OFFSET -3.215179 -1.872803 1.924282
										CHANNELS 6 Xposition Yposition Zposition Xrotation Yrotation Zrotation
										JOINT mixamorig:RightHandThumb3
										{
											OFFSET -2.654831 -1.527969 1.512609
											CHANNELS 6 Xposition Yposition Zposition Xrotation Yrotation Zrotation
											JOINT mixamorig:RightHandThumb4
											{
												OFFSET -2.018814 -1.152008 1.108052
												CHANNELS 6 Xposition Yposition Zposition Xrotation Yrotation Zrotation
												End Site
												{
													OFFSET -188.809540 -114.533607 132.431396
												}
											}
										}
									}
								}
								JOINT mixamorig:RightHandIndex1
								{
									OFFSET -9.108284 -0.517868 2.259835
									CHANNELS 6 Xposition Yposition Zposition Xrotation Yrotation Zrotation
									JOINT mixamorig:RightHandIndex2
									{
										OFFSET -3.699989 0.000000 0.001215
										CHANNELS 6 Xposition Yposition Zposition Xrotation Yrotation Zrotation
										JOINT mixamorig:RightHandIndex3
										{
											OFFSET -2.850006 0.000031 -0.000522
											CHANNELS 6 Xposition Yposition Zposition Xrotation Yrotation Zrotation
											JOINT mixamorig:RightHandIndex4
											{
												OFFSET -2.772186 -0.000015 -0.000020
												CHANNELS 6 Xposition Yposition Zposition Xrotation Yrotation Zrotation
												End Site
												{
													OFFSET -277.218445 0.000000 -0.050231
												}
											}
										}
									}
								}
								JOINT mixamorig:RightHandMiddle1
								{
									OFFSET -9.532516 -0.000031 -0.000023
									CHANNELS 6 Xposition Yposition Zposition Xrotation Yrotation Zrotation
									JOINT mixamorig:RightHandMiddle2
									{
										OFFSET -3.700005 -0.000015 0.003713
										CHANNELS 6 Xposition Yposition Zposition Xrotation Yrotation Zrotation
										JOINT mixamorig:RightHandMiddle3
										{
											OFFSET -2.949974 0.000015 -0.002054
											CHANNELS 6 Xposition Yposition Zposition Xrotation Yrotation Zrotation
											JOINT mixamorig:RightHandMiddle4
											{
												OFFSET -2.946640 0.000000 -0.000156
												CHANNELS 6 Xposition Yposition Zposition Xrotation Yrotation Zrotation
												End Site
												{
													OFFSET -294.664337 0.000000 -0.113670
												}
											}
										}
									}
								}
								JOINT mixamorig:RightHandRing1
								{
									OFFSET -9.103600 -0.043076 -1.865134
									CHANNELS 6 Xposition Yposition Zposition Xrotation Yrotation Zrotation
									JOINT mixamorig:RightHandRing2
									{
										OFFSET -3.379288 0.000000 -0.001055
										CHANNELS 6 Xposition Yposition Zposition Xrotation Yrotation Zrotation
										JOINT mixamorig:RightHandRing3
										{
											OFFSET -2.889687 -0.000015 0.000379
											CHANNELS 6 Xposition Yposition Zposition Xrotation Yrotation Zrotation
											JOINT mixamorig:RightHandRing4
											{
												OFFSET -2.638809 -0.000015 0.000941
												CHANNELS 6 Xposition Yposition Zposition Xrotation Yrotation Zrotation
												End Site
												{
													OFFSET -263.880371 0.000000 0.516020
												}
											}
										}
									}
								}
								JOINT mixamorig:RightHandPinky1
								{
									OFFSET -8.076683 -0.486710 -3.806280
									CHANNELS 6 Xposition Yposition Zposition Xrotation Yrotation Zrotation
									JOINT mixamorig:RightHandPinky2
									{
										OFFSET -3.600014 -0.000015 -0.003747
										CHANNELS 6 Xposition Yposition Zposition Xrotation Yrotation Zrotation
										JOINT mixamorig:RightHandPinky3
										{
											OFFSET -2.099983 0.000000 -0.005739
											CHANNELS 6 Xposition Yposition Zposition Xrotation Yrotation Zrotation
											JOINT mixamorig:RightHandPinky4
											{
												OFFSET -2.115768 -0.000031 -0.003680
												CHANNELS 6 Xposition Yposition Zposition Xrotation Yrotation Zrotation
												End Site
												{
													OFFSET -211.577087 0.000000 -0.350686
												}
											}
										}
									}
								}
							}
						}
					}
				}
				JOINT mixamorig:LeftShoulder
				{
					OFFSET 4.570447 11.014725 -2.160855
					CHANNELS 6 Xposition Yposition Zposition Xrotation Yrotation Zrotation
					JOINT mixamorig:LeftArm
					{
						OFFSET 10.592371 -0.524597 -2.232119
						CHANNELS 6 Xposition Yposition Zposition Xrotation Yrotation Zrotation
						JOINT mixamorig:LeftForeArm
						{
							OFFSET 27.841532 -0.000031 0.000026
							CHANNELS 6 Xposition Yposition Zposition Xrotation Yrotation Zrotation
							JOINT mixamorig:LeftHand
							{
								OFFSET 28.328846 -0.000061 0.000022
								CHANNELS 6 Xposition Yposition Zposition Xrotation Yrotation Zrotation
								JOINT mixamorig:LeftHandThumb1
								{
									OFFSET 2.466141 -1.576172 2.681732
									CHANNELS 6 Xposition Yposition Zposition Xrotation Yrotation Zrotation
									JOINT mixamorig:LeftHandThumb2
									{
										OFFSET 3.217812 -1.872070 1.916482
										CHANNELS 6 Xposition Yposition Zposition Xrotation Yrotation Zrotation
										JOINT mixamorig:LeftHandThumb3
										{
											OFFSET 2.656029 -1.528778 1.514513
											CHANNELS 6 Xposition Yposition Zposition Xrotation Yrotation Zrotation
											JOINT mixamorig:LeftHandThumb4
											{
												OFFSET 2.020889 -1.154053 1.115139
												CHANNELS 6 Xposition Yposition Zposition Xrotation Yrotation Zrotation
												End Site
												{
													OFFSET 190.885437 -115.081749 130.048782
												}
											}
										}
									}
								}
								JOINT mixamorig:LeftHandIndex1
								{
									OFFSET 9.109314 -0.518021 2.259871
									CHANNELS 6 Xposition Yposition Zposition Xrotation Yrotation Zrotation
									JOINT mixamorig:LeftHandIndex2
									{
										OFFSET 3.699989 0.000000 -0.000322
										CHANNELS 6 Xposition Yposition Zposition Xrotation Yrotation Zrotation
										JOINT mixamorig:LeftHandIndex3
										{
											OFFSET 2.850006 0.000000 0.000352
											CHANNELS 6 Xposition Yposition Zposition Xrotation Yrotation Zrotation
											JOINT mixamorig:LeftHandIndex4
											{
												OFFSET 2.774864 -0.000031 -0.000027
												CHANNELS 6 Xposition Yposition Zposition Xrotation Yrotation Zrotation
												End Site
												{
													OFFSET 277.486267 0.000000 -0.009857
												}
											}
										}
									}
								}
								JOINT mixamorig:LeftHandMiddle1
								{
									OFFSET 9.533394 0.000061 0.000044
									CHANNELS 6 Xposition Yposition Zposition Xrotation Yrotation Zrotation
									JOINT mixamorig:LeftHandMiddle2
									{
										OFFSET 3.699989 -0.000015 -0.000231
										CHANNELS 6 Xposition Yposition Zposition Xrotation Yrotation Zrotation
										JOINT mixamorig:LeftHandMiddle3
										{
											OFFSET 2.949997 -0.000015 -0.000059
											CHANNELS 6 Xposition Yposition Zposition Xrotation Yrotation Zrotation
											JOINT mixamorig:LeftHandMiddle4
											{
												OFFSET 2.952896 0.000031 0.000063
												CHANNELS 6 Xposition Yposition Zposition Xrotation Yrotation Zrotation
												End Site
												{
													OFFSET 295.289337 0.000000 0.022810
												}
											}
										}
									}
								}
								JOINT mixamorig:LeftHandRing1
								{
									OFFSET 9.104523 -0.042999 -1.865074
									CHANNELS 6 Xposition Yposition Zposition Xrotation Yrotation Zrotation
									JOINT mixamorig:LeftHandRing2
									{
										OFFSET 3.150009 -0.000031 0.000043
										CHANNELS 6 Xposition Yposition Zposition Xrotation Yrotation Zrotation
										JOINT mixamorig:LeftHandRing3
										{
											OFFSET 2.949982 -0.000015 0.000040
											CHANNELS 6 Xposition Yposition Zposition Xrotation Yrotation Zrotation
											JOINT mixamorig:LeftHandRing4
											{
												OFFSET 2.644348 0.000000 0.000057
												CHANNELS 6 Xposition Yposition Zposition Xrotation Yrotation Zrotation
												End Site
												{
													OFFSET 264.434631 0.000000 0.012105
												}
											}
										}
									}
								}
								JOINT mixamorig:LeftHandPinky1
								{
									OFFSET 8.077789 -0.486847 -3.806259
									CHANNELS 6 Xposition Yposition Zposition Xrotation Yrotation Zrotation
									JOINT mixamorig:LeftHandPinky2
									{
										OFFSET 3.599953 0.000031 0.014727
										CHANNELS 6 Xposition Yposition Zposition Xrotation Yrotation Zrotation
										JOINT mixamorig:LeftHandPinky3
										{
											OFFSET 2.100021 0.000015 0.007705
											CHANNELS 6 Xposition Yposition Zposition Xrotation Yrotation Zrotation
											JOINT mixamorig:LeftHandPinky4
											{
												OFFSET 2.125504 0.000031 0.007517
												CHANNELS 6 Xposition Yposition Zposition Xrotation Yrotation Zrotation
												End Site
												{
													OFFSET 212.550781 0.000000 0.625752
												}
											}
										}
									}
								}
							}
						}
					}
				}
			}
		}
	}
	JOINT mixamorig:RightUpLeg
	{
		OFFSET -8.207787 -6.751648 -1.599560
		CHANNELS 6 Xposition Yposition Zposition Xrotation Yrotation Zrotation
		JOINT mixamorig:RightLeg
		{
			OFFSET -0.000002 -44.370117 0.345942
			CHANNELS 6 Xposition Yposition Zposition Xrotation Yrotation Zrotation
			JOINT mixamorig:RightFoot
			{
				OFFSET 0.000003 -44.423679 -3.043532
				CHANNELS 6 Xposition Yposition Zposition Xrotation Yrotation Zrotation
				JOINT mixamorig:RightToeBase
				{
					OFFSET -0.000002 -8.728671 10.710558
					CHANNELS 6 Xposition Yposition Zposition Xrotation Yrotation Zrotation
					JOINT mixamorig:RightToe_End
					{
						OFFSET -0.000001 -0.000679 9.278119
						CHANNELS 6 Xposition Yposition Zposition Xrotation Yrotation Zrotation
						End Site
						{
							OFFSET 0.000000 -0.067690 927.812134
						}
					}
				}
			}
		}
	}
	JOINT mixamorig:LeftUpLeg
	{
		OFFSET 8.207793 -6.751686 -1.599556
		CHANNELS 6 Xposition Yposition Zposition Xrotation Yrotation Zrotation
		JOINT mixamorig:LeftLeg
		{
			OFFSET -0.000004 -44.370014 0.346954
			CHANNELS 6 Xposition Yposition Zposition Xrotation Yrotation Zrotation
			JOINT mixamorig:LeftFoot
			{
				OFFSET -0.000001 -44.423672 -3.044401
				CHANNELS 6 Xposition Yposition Zposition Xrotation Yrotation Zrotation
				JOINT mixamorig:LeftToeBase
				{
					OFFSET -0.000002 -8.728669 10.710558
					CHANNELS 6 Xposition Yposition Zposition Xrotation Yrotation Zrotation
					JOINT mixamorig:LeftToe_End
					{
						OFFSET -0.000003 -0.000679 9.278133
						CHANNELS 6 Xposition Yposition Zposition Xrotation Yrotation Zrotation
						End Site
						{
							OFFSET 0.000000 -0.068021 927.813477
						}
					}
				}
			}
		}
	}
}
MOTION
Frames: 3
Frame Time: 0.033333
0.000006 104.270477 1.554256 0.000010 0.000003 -0.000113 -0.000005 10.181587 0.131522 0.000001 -0.000003 0.000084 -0.000000 9.893967 -1.470711 0.000001 0.000000 -0.000000 -0.000000 9.220802 -1.370642 0.000000 -0.000000 -0.000000 0.000001 16.740433 -2.049030 0.000000 -0.000000 -0.000000 0.000000 9.617859 1.685014 0.000000 0.000000 0.000000 0.000002 22.037384 7.501101 0.000000 -0.000000 0.000000 -4.569968 11.014880 -2.160881 0.000008 0.000001 -0.000038 -10.592877 -0.524745 -2.231929 74.986038 24.645513 -19.026621 -27.841528 0.000009 0.000545 -55.789101 108.057991 72.211362 -28.328831 0.000021 0.000022 -0.000322 -0.000047 0.000008 -2.464473 -1.573932 2.682386 -26.092047 -152.477799 33.648159 -3.215256 -1.872502 1.924638 152.641068 34.811692 26.614501 -2.654946 -1.527891 1.513081 155.214000 25.166375 -37.694974 -2.018842 -1.152003 1.108057 -0.000000 -0.000001 0.000002 -9.108420 -0.517566 2.260126 99.422030 17.955135 -21.168655 -3.700080 0.000309 0.001519 94.750092 16.092588 -17.438334 -2.850093 0.000353 -0.000267 94.116318 12.920681 -13.873879 -2.772160 -0.000002 -0.000022 -0.000002 0.000001 -0.000001 -9.532610 0.000274 0.000256 99.731936 15.362557 -18.344666 -3.700084 0.000325 0.003990 99.046957 12.291345 -14.271813 -2.950071 0.000333 -0.001811 98.807163 11.752628 -13.688160 -2.946607 0.000001 -0.000155 -0.000003 0.000001 -0.000001 -9.103706 -0.042744 -1.864838 98.746442 15.987550 -18.541080 -3.379323 0.000316 -0.000776 101.512061 8.939162 -10.953346 -2.889743 0.000362 0.000664 103.409740 6.680095 -8.511681 -2.638797 0.000001 0.000942 0.000001 -0.000002 -0.000002 -8.076775 -0.486372 -3.806006 91.957562 16.432125 -16.840513 -3.600044 0.000288 -0.003480 96.222018 7.486935 -7.954094 -2.099998 0.000332 -0.005468 97.275370 4.412718 -4.766454 -2.115782 -0.000054 -0.003677 -0.000001 0.000000 -0.000004 4.570446 11.014691 -2.160851 -0.000018 0.000010 -0.000021 10.592392 -0.524477 -2.232336 73.833983 -10.226146 7.691741 27.841825 0.000080 -0.000196 100.542884 -70.194947 80.436105 28.328848 -0.000029 0.000026 0.000023 -0.000088 -0.000000 2.466252 -1.575884 2.681776 -164.863063 -14.175943 37.594485 3.217856 -1.871877 1.916423 162.380972 -20.787723 46.243758 2.656097 -1.528695 1.514506 138.473343 -27.809636 59.808668 2.020879 -1.154054 1.115152 -0.000002 0.000005 0.000008 9.109383 -0.517912 2.259759 67.044823 -21.088501 14.050012 3.700047 0.000082 -0.000434 61.337510 -20.423446 12.206523 2.850045 0.000116 0.000232 58.042510 -17.084432 9.526385 2.774878 -0.000043 -0.000026 0.000002 0.000002 0.000004 9.533479 0.000141 -0.000084 65.414880 -18.552238 11.969082 3.700053 0.000087 -0.000355 66.264153 -16.877640 11.059830 2.950050 0.000101 -0.000185 66.984621 -17.647570 11.731448 2.952859 -0.000018 0.000066 0.000003 0.000002 -0.000000 9.104591 -0.042906 -1.865211 66.503933 -17.691512 11.653995 3.150024 0.000133 -0.000086 65.783662 -14.830521 9.623779 2.950016 0.000116 -0.000070 68.085463 -14.060481 9.526391 2.644324 0.000028 0.000056 -0.000000 -0.000002 -0.000003 8.077845 -0.486771 -3.806396 60.995638 -18.994375 11.626716 3.599998 0.000111 0.014583 60.245205 -15.944880 9.608277 2.100038 0.000124 0.007563 62.948950 -13.593217 8.655748 2.125504 0.000002 0.007515 -0.000002 -0.000000 0.000000 -8.207786 -6.751667 -1.599560 -0.077001 -0.000003 0.000080 -0.000002 -44.370110 0.345938 0.153719 -0.000000 -0.000000 0.000000 -44.423679 -3.043532 -0.076700 0.000000 -0.000002 -0.000006 -8.728667 10.710559 -0.000009 -0.000000 -0.000000 -0.000001 -0.000679 9.278123 0.000000 -0.000000 -0.000000 8.207792 -6.751710 -1.599556 -0.074518 -0.000003 0.000081 -0.000002 -44.370014 0.346960 0.148822 0.000002 0.000000 -0.000001 -44.423664 -3.044403 -0.074314 0.000000 -0.000002 -0.000004 -8.728671 10.710558 0.000007 -0.000000 -0.000000 0.000000 -0.000680 9.278137 -0.000000 0.000000 -0.000001 
0.000006 104.270477 1.554256 0.000010 0.000003 -0.000113 -0.000005 10.181587 0.131522 0.000001 -0.000003 0.000084 -0.000000 9.893967 -1.470711 0.000001 0.000000 -0.000000 -0.000000 9.220802 -1.370642 0.000000 -0.000000 -0.000000 0.000001 16.740433 -2.049030 0.000000 -0.000000 -0.000000 0.000000 9.617859 1.685014 0.000000 0.000000 0.000000 0.000002 22.037384 7.501101 0.000000 -0.000000 0.000000 -4.569968 11.014880 -2.160881 0.000008 0.000001 -0.000038 -10.592871 -0.524773 -2.231896 75.693625 30.424842 -23.860479 -27.841518 0.000010 0.000540 -52.995854 105.862277 66.843865 -28.328819 0.000018 0.000028 -0.000317 -0.000046 0.000009 -2.464389 -1.573847 2.682331 -41.731032 -154.693922 3.042922 -3.215206 -1.872455 1.924611 142.703361 33.313206 44.966554 -2.654970 -1.527836 1.513060 150.561575 27.662290 -25.287737 -2.018834 -1.151997 1.108052 -0.000005 -0.000001 0.000002 -9.108388 -0.517556 2.260112 98.044203 16.522270 -19.032597 -3.700068 0.000312 0.001514 95.691688 15.111814 -16.645191 -2.850069 0.000369 -0.000262 95.325405 12.342154 -13.534413 -2.772141 -0.000000 -0.000020 -0.000000 0.000001 0.000000 -9.532583 0.000263 0.000264 98.878982 15.901935 -18.701241 -3.700095 0.000325 0.003999 99.693769 13.474923 -15.828682 -2.950063 0.000340 -0.001774 102.427013 11.948450 -14.829814 -2.946627 0.000000 -0.000153 0.000000 -0.000002 0.000001 -9.103707 -0.042753 -1.864843 98.662970 18.043379 -20.887676 -3.379336 0.000310 -0.000784 100.045783 10.771166 -12.852009 -2.889754 0.000340 0.000683 106.072858 7.168285 -9.576537 -2.638808 -0.000010 0.000942 -0.000001 0.000001 -0.000001 -8.076756 -0.486384 -3.806007 90.748072 19.355897 -19.449918 -3.600022 0.000281 -0.003485 94.612409 9.044016 -9.412054 -2.100000 0.000319 -0.005460 98.595065 4.500648 -4.980260 -2.115763 -0.000056 -0.003678 0.000001 -0.000002 0.000004 4.570446 11.014691 -2.160851 -0.000018 0.000010 -0.000021 10.592381 -0.524487 -2.232331 73.736584 -4.560465 3.421030 27.841825 0.000061 -0.000225 100.413685 -71.105172 81.258829 28.328846 -0.000029 0.000024 0.000018 -0.000089 0.000000 2.466237 -1.575881 2.681775 -166.072621 -16.784280 33.966978 3.217884 -1.871920 1.916463 159.503290 -17.544965 62.469525 2.656103 -1.528711 1.514509 137.355050 -28.129818 65.108000 2.020890 -1.154069 1.115138 0.000001 -0.000000 0.000006 9.109376 -0.517922 2.259769 65.673246 -23.731482 15.434981 3.700059 0.000079 -0.000459 65.589487 -17.181158 11.130723 2.850038 0.000120 0.000220 65.082277 -13.603775 8.703662 2.774883 -0.000032 -0.000027 0.000002 0.000005 0.000001 9.533456 0.000137 -0.000070 65.997563 -19.380266 12.648616 3.700052 0.000108 -0.000364 68.407978 -13.312303 9.068439 2.950049 0.000114 -0.000206 66.764320 -12.244366 8.087572 2.952852 -0.000018 0.000063 0.000003 -0.000002 0.000002 9.104584 -0.042912 -1.865210 66.197804 -18.731377 12.274454 3.150060 0.000120 -0.000087 68.492515 -13.773945 9.402592 2.950006 0.000127 -0.000080 68.025699 -10.593697 7.161290 2.644315 0.000031 0.000055 -0.000003 0.000001 0.000001 8.077843 -0.486769 -3.806376 62.580379 -20.347023 12.836669 3.599996 0.000131 0.014600 61.679470 -16.696515 10.342658 2.100024 0.000134 0.007550 64.484806 -12.219436 8.037551 2.125493 -0.000013 0.007520 0.000002 -0.000001 -0.000002 -8.207786 -6.751667 -1.599560 -0.077001 -0.000003 0.000080 -0.000002 -44.370110 0.345938 0.153719 -0.000000 -0.000000 0.000000 -44.423679 -3.043532 -0.076700 0.000000 -0.000002 -0.000006 -8.728667 10.710559 -0.000009 -0.000000 -0.000000 -0.000001 -0.000679 9.278123 0.000000 -0.000000 -0.000000 8.207792 -6.751710 -1.599556 -0.074518 -0.000003 0.000081 -0.000002 -44.370014 0.346960 0.148822 0.000002 0.000000 -0.000001 -44.423664 -3.044403 -0.074314 0.000000 -0.000002 -0.000004 -8.728671 10.710558 0.000007 -0.000000 -0.000000 0.000000 -0.000680 9.278137 -0.000000 0.000000 -0.000001 
0.000006 104.270477 1.554256 0.000010 0.000003 -0.000113 -0.000005 10.181587 0.131522 0.000001 -0.000003 0.000084 -0.000000 9.893967 -1.470711 0.000001 0.000000 -0.000000 -0.000000 9.220802 -1.370642 0.000000 -0.000000 -0.000000 0.000001 16.740433 -2.049030 0.000000 -0.000000 -0.000000 0.000000 9.617859 1.685014 0.000000 0.000000 0.000000 0.000002 22.037384 7.501101 0.000000 -0.000000 0.000000 -4.569968 11.014880 -2.160881 0.000008 0.000001 -0.000038 -10.592861 -0.524786 -2.231860 75.678059 37.346317 -29.418451 -27.841534 0.000017 0.000551 -52.295179 103.158867 63.509735 -28.328815 0.000018 0.000030 -0.000323 -0.000044 0.000008 -2.464392 -1.573830 2.682332 -42.697097 -155.124620 1.045429 -3.215190 -1.872473 1.924606 142.736228 33.265938 44.262628 -2.654958 -1.527851 1.513052 150.347927 27.784829 -24.436854 -2.018819 -1.152012 1.108078 -0.000006 0.000001 0.000005 -9.108370 -0.517549 2.260116 98.257455 15.855842 -18.337632 -3.700084 0.000319 0.001520 96.081767 14.673521 -16.272465 -2.850099 0.000357 -0.000261 95.525339 12.012328 -13.219097 -2.772163 0.000002 -0.000019 -0.000000 0.000000 -0.000000 -9.532595 0.000271 0.000268 99.668163 15.337895 -18.295254 -3.700070 0.000306 0.004003 100.472165 13.145629 -15.652724 -2.950037 0.000326 -0.001767 102.965580 11.721518 -14.688411 -2.946610 0.000000 -0.000157 -0.000000 0.000001 0.000000 -9.103688 -0.042750 -1.864831 99.209030 17.049498 -19.928330 -3.379330 0.000314 -0.000792 100.454987 10.213094 -12.276710 -2.889741 0.000344 0.000682 106.610510 6.961683 -9.393660 -2.638815 -0.000016 0.000941 -0.000000 0.000001 -0.000001 -8.076742 -0.486381 -3.806003 90.872108 18.747054 -18.874406 -3.600046 0.000285 -0.003490 94.957552 8.628276 -9.018035 -2.100012 0.000318 -0.005452 99.485476 4.232144 -4.743216 -2.115768 -0.000053 -0.003678 -0.000001 0.000001 -0.000006 4.570446 11.014691 -2.160851 -0.000018 0.000010 -0.000021 10.592432 -0.524467 -2.232381 74.058075 -23.809614 18.072535 27.841824 0.000046 -0.000172 100.183241 -74.962426 85.030412 28.328829 -0.000028 0.000024 0.000029 -0.000091 0.000001 2.466089 -1.575807 2.681824 -160.980537 -40.491004 -7.877284 3.217815 -1.872007 1.916542 155.780318 -9.169969 97.592646 2.656094 -1.528720 1.514519 140.969586 -26.252389 69.841164 2.020895 -1.154063 1.115147 0.000001 0.000002 0.000001 9.109352 -0.517949 2.259774 60.246100 -25.480533 14.939084 3.700050 0.000120 -0.000467 71.787351 -17.706868 12.876454 2.850055 0.000171 0.000209 73.824824 -13.058716 9.826702 2.774879 -0.000015 -0.000029 -0.000000 -0.000000 0.000000 9.533444 0.000143 -0.000061 66.417490 -21.651613 14.263657 3.700040 0.000152 -0.000379 79.476266 -12.506873 10.407969 2.950049 0.000166 -0.000207 81.000627 -10.184656 8.707259 2.952873 -0.000030 0.000063 -0.000000 -0.000007 0.000000 9.104567 -0.042912 -1.865206 67.110959 -20.110211 13.417081 3.150029 0.000174 -0.000109 79.622848 -11.346442 9.468280 2.950010 0.000178 -0.000095 81.880922 -7.079993 6.145014 2.644324 0.000046 0.000055 0.000000 -0.000001 0.000000 8.077825 -0.486766 -3.806376 65.310399 -19.986095 13.289805 3.599995 0.000165 0.014587 76.922799 -13.932934 11.498690 2.100024 0.000188 0.007528 84.781697 -8.672836 8.342468 2.125473 0.000000 0.007510 -0.000000 -0.000003 -0.000000 -8.207786 -6.751667 -1.599560 -0.077001 -0.000003 0.000080 -0.000002 -44.370110 0.345938 0.153719 -0.000000 -0.000000 0.000000 -44.423679 -3.043532 -0.076700 0.000000 -0.000002 -0.000006 -8.728667 10.710559 -0.000009 -0.000000 -0.000000 -0.000001 -0.000679 9.278123 0.000000 -0.000000 -0.000000 8.207792 -6.751710 -1.599556 -0.074518 -0.000003 0.000081 -0.000002 -44.370014 0.346960 0.148822 0.000002 0.000000 -0.000001 -44.423664 -3.044403 -0.074314 0.000000 -0.000002 -0.000004 -8.728671 10.710558 0.000007 -0.000000 -0.000000 0.000000 -0.000680 9.278137 -0.000000 0.000000 -0.000001 
